<svg width="21" height="20" viewBox="0 0 21 20" fill="none" xmlns="http://www.w3.org/2000/svg">
<path d="M17.4977 19.5307H4.21649C3.2257 19.5307 2.41961 18.7246 2.41961 17.7338V8.27988C2.41961 7.93472 2.69941 7.65488 3.04461 7.65488C3.38981 7.65488 3.66961 7.93472 3.66961 8.27988V17.7338C3.66961 18.0354 3.91492 18.2807 4.21649 18.2807H17.4977C17.7993 18.2807 18.0446 18.0354 18.0446 17.7338V8.27988C18.0446 7.93472 18.3244 7.65488 18.6696 7.65488C19.0148 7.65488 19.2946 7.93472 19.2946 8.27988V17.7338C19.2946 18.7246 18.4886 19.5307 17.4977 19.5307Z" fill="#818A91"/>
<path d="M20.2321 10.4672C20.0721 10.4672 19.9122 10.4062 19.7902 10.2841L12.0172 2.51119C11.3775 1.87151 10.3367 1.87151 9.69699 2.51119L1.92402 10.2842C1.67995 10.5283 1.28421 10.5283 1.04015 10.2842C0.796045 10.0401 0.796045 9.64436 1.04015 9.40029L8.81312 1.62729C9.94016 0.500255 11.774 0.500255 12.901 1.62729L20.674 9.40026C20.9181 9.64436 20.9181 10.0401 20.674 10.2841C20.552 10.4062 20.392 10.4672 20.2321 10.4672Z" fill="#818A91"/>
<path d="M13.3571 19.5307H8.35712C8.01193 19.5307 7.73212 19.2508 7.73212 18.9056V13.3588C7.73212 12.2818 8.6083 11.4056 9.68525 11.4056H12.029C13.106 11.4056 13.9821 12.2818 13.9821 13.3588V18.9056C13.9821 19.2508 13.7023 19.5307 13.3571 19.5307ZM8.98213 18.2806H12.7321V13.3588C12.7321 12.9711 12.4167 12.6556 12.029 12.6556H9.68525C9.29756 12.6556 8.98213 12.9711 8.98213 13.3588V18.2806Z" fill="#818A91"/>
</svg>
