<svg width="21" height="20" viewBox="0 0 21 20" fill="none" xmlns="http://www.w3.org/2000/svg">
<g clip-path="url(#clip0)">
<path fill-rule="evenodd" clip-rule="evenodd" d="M3.25707 1.5C2.49088 1.5 1.85707 2.13253 1.85707 2.92857V12.5714C1.85707 13.3675 2.49088 14 3.25707 14H18.4571C19.2233 14 19.8571 13.3675 19.8571 12.5714V2.92857C19.8571 2.13253 19.2233 1.5 18.4571 1.5H3.25707ZM0.857071 2.92857C0.857071 1.59437 1.92458 0.5 3.25707 0.5H18.4571C19.7896 0.5 20.8571 1.59437 20.8571 2.92857V12.5714C20.8571 13.9056 19.7896 15 18.4571 15H3.25707C1.92458 15 0.857071 13.9056 0.857071 12.5714V2.92857Z" fill="#818A91"/>
<path fill-rule="evenodd" clip-rule="evenodd" d="M5.85707 19C5.85707 18.7239 6.08093 18.5 6.35707 18.5H16.3571C16.6332 18.5 16.8571 18.7239 16.8571 19C16.8571 19.2761 16.6332 19.5 16.3571 19.5H6.35707C6.08093 19.5 5.85707 19.2761 5.85707 19Z" fill="#818A91"/>
<path fill-rule="evenodd" clip-rule="evenodd" d="M11.3571 14C11.6332 14 11.8571 14.2239 11.8571 14.5V19C11.8571 19.2761 11.6332 19.5 11.3571 19.5C11.0809 19.5 10.8571 19.2761 10.8571 19V14.5C10.8571 14.2239 11.0809 14 11.3571 14Z" fill="#818A91"/>
</g>
<defs>
<clipPath id="clip0">
<rect width="20" height="20" fill="white" transform="translate(0.857071)"/>
</clipPath>
</defs>
</svg>
