<svg width="40" height="40" viewBox="0 0 40 40" fill="none" xmlns="http://www.w3.org/2000/svg">
<path fill-rule="evenodd" clip-rule="evenodd" d="M16.9934 14.3065C17.4142 14.1609 17.8733 14.3839 18.019 14.8046C18.3003 15.6174 19.2865 17.9162 20.4779 19.2273C21.92 20.8142 23.4432 21.8678 25.4831 21.8678C27.5536 21.8678 29.0752 20.9884 30.653 19.2309C31.8398 17.909 32.8354 15.6131 33.1153 14.8046C33.261 14.3839 33.7201 14.1609 34.1409 14.3065C34.5617 14.4522 34.7847 14.9113 34.639 15.3321C34.3357 16.2082 33.255 18.7463 31.8529 20.3081C30.0781 22.2849 28.1525 23.4802 25.4831 23.4802C22.7829 23.4802 20.8589 22.0442 19.2846 20.3117C17.8693 18.7541 16.7971 16.2039 16.4953 15.3321C16.3496 14.9113 16.5726 14.4522 16.9934 14.3065Z" fill="#042D48"/>
<path d="M20.6181 3.64187C20.5463 3.44817 20.6326 3.23417 20.818 3.14584L22.6804 2.25899C22.9036 2.15271 23.1727 2.27126 23.2465 2.50837L24.2372 5.69102C24.3173 5.94815 24.127 6.20568 23.8569 6.20568L21.8549 6.20568C21.6833 6.20568 21.5287 6.09826 21.4692 5.93766L20.6181 3.64187Z" fill="#042D48"/>
<path d="M30.5368 3.69754C30.6085 3.5041 30.5225 3.29035 30.3374 3.20181L28.4864 2.31636C28.2631 2.20957 27.9935 2.32805 27.9196 2.56544L26.9292 5.74728C26.8491 6.00442 27.0394 6.26195 27.3095 6.26195L29.2997 6.26195C29.4713 6.26195 29.6259 6.15453 29.6855 5.99393L30.5368 3.69754Z" fill="#042D48"/>
<path d="M17.1445 7.7514C17.6886 6.1798 19.196 5.76698 19.8816 5.76698L20.5207 5.75775L19.8743 4.15456C18.8071 4.15729 16.4744 4.75813 15.6208 7.22393C14.8389 9.48274 15.3027 11.5909 15.6021 12.7441L15.6068 12.7624L15.6124 12.7805L16.032 14.1323C16.3203 13.535 16.9102 13.3866 17.4955 13.408L17.1581 12.3207C16.8751 11.2271 16.5303 9.52579 17.1445 7.7514Z" fill="#042D48"/>
<path fill-rule="evenodd" clip-rule="evenodd" d="M31.2932 4.13092V5.76556H30.6469L31.2932 4.13092ZM35.5137 7.22393C34.6605 4.75932 32.3672 4.15454 31.2936 4.15454V5.76698C31.9695 5.76698 33.4436 6.17296 33.99 7.7514C34.6015 9.51785 34.2624 11.2118 33.9803 12.306L33.5734 13.4598C33.7189 13.3822 33.885 13.3381 34.0613 13.3381H34.1412C34.5737 13.3381 34.9444 13.6028 35.1001 13.979L35.5124 12.8096L35.5238 12.7772L35.5324 12.7441C35.8318 11.5909 36.2956 9.48274 35.5137 7.22393Z" fill="#042D48"/>
<path fill-rule="evenodd" clip-rule="evenodd" d="M25.323 24.868C25.7683 24.868 26.1292 25.2289 26.1292 25.6742V29.7914C26.1292 34.7575 22.5294 36.6632 21.3969 37.2084C20.4302 37.6738 18.9662 37.9403 17.516 37.9729C16.0645 38.0055 14.474 37.8076 13.2718 37.2192C12.6525 36.916 11.4859 36.2202 10.4616 35.1745C9.43976 34.1314 8.48242 32.6583 8.48242 30.8208C8.48242 30.3755 8.84338 30.0145 9.28864 30.0145C9.7339 30.0145 10.0949 30.3755 10.0949 30.8208C10.0949 32.0711 10.7464 33.1611 11.6134 34.0462C12.4779 34.9286 13.4802 35.526 13.9807 35.771C14.8547 36.1987 16.1515 36.3907 17.4798 36.3608C18.8095 36.331 20.0179 36.0827 20.6974 35.7556C21.7029 35.2715 24.5168 33.772 24.5168 29.7914V25.6742C24.5168 25.2289 24.8777 24.868 25.323 24.868Z" fill="#042D48"/>
</svg>
