<svg width="33" height="38" viewBox="0 0 33 38" fill="none" xmlns="http://www.w3.org/2000/svg">
<path d="M4 25.9231C4.31945 26.6015 4.63218 27.8194 4.96325 29.1087C5.74146 32.1404 6.62356 35.5766 8.59271 36.7087C9.26443 37.0948 10.0276 37.1935 10.7999 36.9938C12.8422 36.4664 13.5341 34.2019 14.1443 32.2039C14.7912 30.0869 15.2605 28.7973 16.308 28.7852C17.3553 28.7973 17.8249 30.0869 18.4716 32.2039C19.082 34.2019 19.7736 36.4664 21.8159 36.9938C22.0759 37.061 22.3349 37.0945 22.5897 37.0945C23.0917 37.0945 23.5778 36.9648 24.0231 36.7087C25.9923 35.5763 26.8746 32.1404 27.6528 29.1087C27.9837 27.8194 28.2964 26.6015 28.6158 25.9231C28.8185 25.4926 29.035 25.0575 29.2446 24.6365C30.6232 21.8671 32.0489 19.0033 30.6519 15.3876C30.1596 14.0945 29.7477 13.7244 29.2446 13" stroke="#042D48" stroke-width="1.61" stroke-linecap="round" stroke-linejoin="round"/>
<path fill-rule="evenodd" clip-rule="evenodd" d="M25.2532 10.6894C24.2665 10.2546 22.8927 9.92777 21.7188 10.295C21.0443 10.506 20.3313 10.9434 19.6014 11.4416C19.4579 11.5396 19.3104 11.6425 19.1611 11.7467C18.6115 12.1303 18.0384 12.5302 17.5583 12.7555C17.0587 12.99 16.5842 13.1209 16.0891 13.1105C15.5973 13.1002 15.1613 12.9516 14.7433 12.7555C14.2109 12.5056 13.8886 12.2421 13.5964 12.0032C13.5374 11.9549 13.4796 11.9076 13.4215 11.8616C13.084 11.5946 12.6045 11.2518 11.5468 10.7555C10.6595 10.3391 9.49451 10.2142 8.27167 10.3864C7.05388 10.5578 5.84493 11.0153 4.89349 11.685C3.29449 12.8105 2.03859 14.7947 2.03859 17.5267C2.03859 19.5331 2.8618 21.3384 3.40483 22.3868C3.46253 22.4442 3.51212 22.5106 3.55106 22.5852C3.75947 22.9845 3.58356 23.4667 3.15815 23.6623C2.73274 23.8579 2.21893 23.6928 2.01052 23.2935C1.96749 23.2111 1.94084 23.1251 1.92939 23.0389C1.34919 21.9083 0.428589 19.8617 0.428589 17.5267C0.428589 14.2588 1.9493 11.7885 3.96679 10.3685C5.14638 9.53816 6.60123 8.99565 8.04723 8.79209C9.48818 8.58924 10.9869 8.71432 12.2307 9.29798C13.3959 9.84473 13.9819 10.252 14.4206 10.5991C14.506 10.6668 14.5805 10.7272 14.6482 10.7822L14.6482 10.7822L14.6482 10.7822C14.9219 11.0045 15.0863 11.138 15.4273 11.298C15.742 11.4457 15.9454 11.4971 16.1228 11.5008C16.2969 11.5045 16.5216 11.4635 16.8744 11.298C17.2179 11.1368 17.6276 10.8515 18.1492 10.4883L18.1493 10.4883C18.3185 10.3705 18.4995 10.2445 18.6938 10.1118C19.429 9.61004 20.3142 9.04745 21.2381 8.75845C22.9932 8.20937 24.8507 8.73682 25.9964 9.25823C26.3451 9.36046 26.5981 9.66586 26.5981 10.0267C26.5981 10.4713 26.214 10.8317 25.7403 10.8317C25.5594 10.8317 25.3915 10.7792 25.2532 10.6894Z" fill="#042D48"/>
</svg>
