<svg width="15" height="15" viewBox="0 0 15 15" fill="none" xmlns="http://www.w3.org/2000/svg">
<path d="M3.27338 14.75C3.11315 14.75 2.95403 14.7005 2.81824 14.6033C2.56528 14.4218 2.44711 14.1099 2.51596 13.8088L3.45682 9.70586L0.266007 6.93563C0.0314603 6.73293 -0.0581406 6.41192 0.0381553 6.1182C0.134451 5.82502 0.396447 5.61746 0.706647 5.58907L4.92849 5.20963L6.59765 1.3426C6.72073 1.05848 7.00102 0.875 7.31245 0.875C7.62388 0.875 7.90417 1.05848 8.02725 1.34193L9.69641 5.20963L13.9176 5.58907C14.2285 5.6168 14.4905 5.82502 14.5867 6.1182C14.683 6.41137 14.594 6.73293 14.3595 6.93563L11.1686 9.70531L12.1095 13.8082C12.1785 14.1099 12.0602 14.4218 11.8073 14.6028C11.555 14.7837 11.2186 14.7976 10.9529 14.6395L7.31245 12.4858L3.67196 14.6408C3.54888 14.7131 3.41174 14.75 3.27338 14.75ZM7.31245 11.558C7.45081 11.558 7.58784 11.5948 7.71102 11.6672L11.1468 13.7015L10.2588 9.82892C10.1954 9.55331 10.2899 9.26555 10.5051 9.07909L13.5179 6.46329L9.53183 6.10494C9.24484 6.07898 8.99802 5.90036 8.88588 5.63856L7.31245 1.98926L5.73713 5.63911C5.62621 5.89915 5.37939 6.07777 5.09307 6.10373L1.10645 6.46207L4.11918 9.07787C4.33498 9.26489 4.42938 9.55209 4.36544 9.82837L3.47814 13.7008L6.91388 11.6672C7.03695 11.5948 7.17409 11.558 7.31245 11.558ZM4.89624 5.28441C4.89624 5.28441 4.89624 5.28507 4.89557 5.28563L4.89624 5.28441ZM9.72743 5.28264L9.7281 5.28386C9.7281 5.2832 9.7281 5.2832 9.72743 5.28264Z" fill="#5085EE"/>
</svg>
