<svg width="35" height="38" viewBox="0 0 35 38" fill="none" xmlns="http://www.w3.org/2000/svg">
<path fill-rule="evenodd" clip-rule="evenodd" d="M15.5003 0.223788C15.5607 0.27807 15.6107 0.338641 15.6504 0.403355C17.0097 1.69818 19.7272 4.41257 20.4003 5.17144C21.171 6.04046 21.5931 7.12146 21.4111 8.19939C21.225 9.30116 20.4421 10.2027 19.2077 10.7522C17.9701 11.303 17.3221 11.6587 16.9552 11.9224C16.6341 12.1531 16.5466 12.2976 16.4449 12.4888C16.404 12.5655 16.369 12.7152 16.3917 12.892C16.4139 13.0655 16.4809 13.1858 16.5476 13.2485C16.8105 13.4955 17.3134 13.9864 17.5309 14.6451C17.6469 14.9965 17.6854 15.4038 17.5642 15.8364C17.4444 16.2641 17.186 16.655 16.8097 17.0085C16.192 17.5889 15.659 18.0584 15.2172 18.4425C15.1222 18.525 15.0326 18.6027 14.9478 18.6761L14.9476 18.6763L14.9475 18.6764C14.6307 18.9509 14.3829 19.1656 14.1879 19.3488C14.0738 19.456 14.0733 19.5175 14.0758 19.5549C14.0805 19.6263 14.1276 19.8022 14.3701 20.0756C14.8338 20.5985 15.6458 21.236 16.0868 21.5676C16.7328 22.0532 16.9584 22.8451 16.7964 23.5696C16.6324 24.3033 16.0887 24.9473 15.2578 25.2942C14.6614 25.5433 14.3639 25.7118 14.2207 25.8463C14.1917 25.8736 14.1768 25.8927 14.1697 25.9032C14.1678 25.906 14.1664 25.9083 14.1653 25.91L14.1635 25.9135C14.1626 25.9152 14.1623 25.916 14.1622 25.9164L14.1617 25.9181L14.1614 25.9196C14.1611 25.9216 14.1604 25.9256 14.1601 25.9321C14.1595 25.9452 14.1598 25.9707 14.1672 26.0121C14.1774 26.0694 14.1934 26.1364 14.2169 26.2347C14.2359 26.314 14.2598 26.4136 14.2893 26.5448C14.3476 26.8037 14.413 27.1276 14.453 27.4812C14.5302 28.1642 14.5277 29.0781 14.0746 29.8759C13.7112 30.5157 13.3513 30.9869 12.8564 31.3616C12.3791 31.7229 11.8246 31.9556 11.1671 32.2027L11.1304 32.2165L11.0926 32.2266C10.0535 32.5056 8.96983 32.4798 7.92527 32.4549L7.89453 32.4542L7.88427 32.4539C6.8046 32.4282 5.70092 32.4019 4.46432 32.6123C3.4892 32.7782 2.69941 33.2586 2.25728 33.9391C1.86262 34.5466 1.68208 35.4103 2.0173 36.5624C2.07449 36.6344 2.11972 36.7166 2.14944 36.8073C2.28867 37.2322 2.03448 37.6826 1.58169 37.8133C1.12889 37.944 0.648961 37.7054 0.509729 37.2805C0.480688 37.1918 0.468763 37.1021 0.472186 37.0144C0.0269212 35.4827 0.217318 34.1239 0.907174 33.062C1.64256 31.93 2.87129 31.2502 4.19431 31.0251C5.58483 30.7886 6.81976 30.818 7.87999 30.8433L7.93284 30.8446C9.01667 30.8704 9.86261 30.8823 10.6386 30.6813C11.268 30.4436 11.6165 30.2809 11.8846 30.078C12.1405 29.8842 12.3705 29.6163 12.6746 29.0808C12.8754 28.7273 12.9172 28.2288 12.8532 27.662C12.8225 27.3907 12.7709 27.1304 12.7187 26.8986C12.7037 26.8323 12.6863 26.7587 12.6688 26.6845L12.6687 26.6844C12.6342 26.5385 12.5992 26.3907 12.5819 26.2932C12.5305 26.0035 12.5358 25.7019 12.6361 25.4035C12.7362 25.1056 12.9124 24.8664 13.1183 24.673C13.4995 24.3148 14.054 24.0522 14.6374 23.8085C15.0382 23.6412 15.187 23.3892 15.2252 23.2184C15.2654 23.0384 15.2029 22.9173 15.1194 22.8545C14.6865 22.5291 13.7506 21.8035 13.1655 21.1439C12.7864 20.7165 12.5058 20.215 12.4693 19.6609C12.4305 19.0729 12.6752 18.5609 13.0855 18.1755C13.3065 17.9678 13.5876 17.7243 13.9086 17.4462C13.9902 17.3755 14.0744 17.3026 14.1609 17.2274C14.5954 16.8497 15.111 16.3954 15.7073 15.8352C15.921 15.6344 15.9903 15.4864 16.0139 15.4021C16.0361 15.3228 16.0335 15.2451 16.0021 15.15C15.9247 14.9156 15.7066 14.6675 15.4451 14.4218C15.0484 14.049 14.8533 13.5535 14.7947 13.0967C14.7366 12.6433 14.8022 12.1485 15.0235 11.7326C15.2207 11.362 15.4608 11.0137 16.0155 10.6151C16.5242 10.2494 17.2999 9.83901 18.553 9.28127C19.4161 8.89712 19.7474 8.38219 19.8236 7.93131C19.9037 7.45659 19.7359 6.84881 19.1958 6.23972C18.5556 5.51787 15.7718 2.73702 14.4581 1.49124C14.407 1.46175 14.3584 1.42675 14.3134 1.38621C13.9713 1.07861 13.9598 0.569025 14.2875 0.24803C14.6153 -0.0729648 15.1583 -0.0838183 15.5003 0.223788ZM26.7472 7.49853C26.3704 7.21253 26.3048 6.6853 26.6004 6.32093C26.896 5.95656 27.4413 5.89298 27.818 6.17898C36.4265 12.7128 36.4305 25.2839 27.818 31.821C27.4413 32.107 26.8961 32.0434 26.6004 31.6791C26.3045 31.3144 26.3706 30.7874 26.7472 30.5015C34.474 24.6362 34.4702 13.36 26.7472 7.49853ZM24.0828 9.77452C24.3856 9.41555 24.9318 9.36197 25.303 9.65474C31.4576 14.5105 31.4293 23.5936 25.223 28.4077C24.8494 28.6976 24.3036 28.6396 24.0039 28.2782C23.704 27.9165 23.7645 27.3888 24.1378 27.0992C29.4638 22.9677 29.5056 15.1348 24.2067 10.9546C23.8355 10.6618 23.78 10.1334 24.0828 9.77452ZM21.7437 13.6514C22.0823 13.3239 22.6315 13.3239 22.9701 13.6514C26.0271 16.6078 26.0266 21.3926 22.9701 24.3485C22.6315 24.676 22.0823 24.676 21.7437 24.3485C21.405 24.0209 21.405 23.4899 21.7437 23.1624C24.1228 20.8616 24.1224 17.1379 21.7437 14.8375C21.4049 14.5099 21.4051 13.9788 21.7437 13.6514Z" fill="#042D48"/>
</svg>
