<svg width="39" height="39" viewBox="0 0 39 39" fill="none" xmlns="http://www.w3.org/2000/svg">
<path fill-rule="evenodd" clip-rule="evenodd" d="M7.65541 0.0370606C8.45304 -0.0604942 9.3445 0.0290911 10.3862 0.370889C13.1622 1.28178 14.0144 4.03021 13.9221 5.95658C13.8828 6.77715 13.6024 8.40102 12.0361 9.7222C11.549 10.1332 11.294 10.5235 11.1633 10.8205C11.0974 10.9703 11.0624 11.0978 11.0452 11.1946C11.0367 11.243 11.0328 11.2824 11.0314 11.3119C11.0308 11.3265 11.0307 11.338 11.031 11.3464L11.0314 11.3559L11.0316 11.3585C11.0316 11.3591 11.0317 11.3593 11.0317 11.3593C11.0748 11.7443 11.2065 12.0117 11.4226 12.4203L11.4412 12.4553C11.6578 12.8647 11.9292 13.3774 12.1112 14.1415C12.324 15.0348 12.3948 16.0783 12.0503 17.1424C11.7025 18.2166 10.9534 19.2435 9.64506 20.1296C7.88142 21.3242 4.91005 21.4241 2.97404 19.5376L2.99911 19.5119C2.77467 19.2515 2.78294 18.858 3.02745 18.6072C3.27189 18.3564 3.66485 18.3381 3.93096 18.5556L3.95108 18.535C5.34962 19.8977 7.5719 19.843 8.85994 18.9705C9.94646 18.2346 10.4794 17.4492 10.7183 16.7112C10.9606 15.9631 10.9228 15.1944 10.7493 14.4658C10.6088 13.8759 10.4068 13.4941 10.1949 13.0935L10.1949 13.0935L10.1851 13.0749L10.1847 13.0743C10.0514 12.8221 9.90634 12.5479 9.79635 12.22C9.24521 12.4833 8.92287 12.8994 8.83293 13.0764L8.80208 13.0607C8.59048 13.3576 8.17914 13.4312 7.87731 13.2241C7.62524 13.0512 7.52839 12.7365 7.62029 12.4602L7.58482 12.4422C7.82836 11.9629 8.53296 11.1151 9.70848 10.7553C9.71313 10.737 9.718 10.7185 9.72311 10.6999C8.73009 9.9701 8.3458 8.93386 8.27508 8.40004L8.31977 8.39412C8.30886 8.06023 8.54873 7.76313 8.88721 7.71075C9.23552 7.65685 9.56264 7.88154 9.64197 8.21896L9.66295 8.21618C9.6908 8.42639 9.87815 8.98193 10.3794 9.4309C10.5799 9.17194 10.8284 8.90942 11.1335 8.65208C12.294 7.67314 12.495 6.49 12.5237 5.8896C12.5998 4.30082 11.8892 2.33754 9.94967 1.70111C9.06804 1.41182 8.38501 1.35826 7.82537 1.42671C7.26604 1.49512 6.78605 1.69066 6.31317 1.96223C5.31695 2.53433 3.46807 3.89653 2.33387 6.95957C1.04417 10.4425 1.05583 13.4663 2.58407 16.7075L2.55241 16.7224C2.55413 16.7261 2.55582 16.7297 2.55748 16.7334C2.55868 16.7361 2.55987 16.7388 2.56104 16.7415C2.70811 17.0812 2.55198 17.4758 2.21232 17.6228C1.87937 17.767 1.49366 17.6198 1.34002 17.294L1.31778 17.3045C-0.389805 13.683 -0.383015 10.2651 1.02099 6.47342C2.29491 3.03306 4.4081 1.44183 5.61597 0.748177C6.19745 0.41425 6.85748 0.134652 7.65541 0.0370606ZM16.298 25.5107C15.5325 25.9346 14.9822 26.5637 14.5744 27.4284C13.8169 29.0346 14.5225 31.2253 16.3365 33.1496C17.2277 34.095 17.6576 34.4856 18.2074 34.9853L18.2708 35.0429L18.322 35.0894C18.6161 35.3564 18.8909 35.6059 19.0691 35.8763C19.3005 36.2273 19.3555 36.5749 19.3555 36.9621C19.3555 37.1814 19.4073 37.3143 19.4486 37.3721C19.4659 37.3962 19.4796 37.4057 19.4904 37.4112C19.5012 37.4167 19.532 37.4298 19.5987 37.4298C19.6726 37.4298 19.707 37.416 19.7184 37.4104C19.7285 37.4055 19.7388 37.3985 19.7524 37.3799C19.7869 37.3327 19.8413 37.2059 19.8413 36.9621C19.8413 36.9089 19.8396 36.8583 19.8373 36.8024L19.8363 36.7789L19.8363 36.7788C19.8343 36.7312 19.8319 36.6736 19.8312 36.6184C19.8296 36.4805 19.8371 36.3037 19.8992 36.1056C20.0217 35.7148 20.3092 35.3932 20.7129 35.0364C21.0768 34.7147 21.3725 34.4729 21.6375 34.2562L21.6378 34.2559L21.638 34.2558C22.0726 33.9003 22.4249 33.6123 22.8611 33.1496C24.6487 31.2537 25.2746 28.9708 24.6114 27.4024C23.916 25.7577 22.3021 24.8298 19.5987 24.8298C18.1318 24.8298 17.0755 25.0801 16.298 25.5107ZM15.6198 24.2859C16.6704 23.7041 17.9828 23.4298 19.5987 23.4298C22.621 23.4298 24.905 24.5019 25.9009 26.8572C26.8685 29.1455 25.8636 32.006 23.8797 34.11C23.3895 34.63 22.9236 35.013 22.4354 35.4144L22.4354 35.4144C22.1787 35.6255 21.9158 35.8416 21.64 36.0854C21.2687 36.4136 21.2361 36.521 21.2351 36.5243L21.2351 36.5244L21.2351 36.5245C21.2349 36.525 21.234 36.5279 21.233 36.5365C21.2318 36.5473 21.2307 36.5662 21.2311 36.6016C21.2315 36.634 21.2329 36.6674 21.2349 36.7159L21.2361 36.7449C21.2386 36.8052 21.2413 36.8791 21.2413 36.9621C21.2413 37.3762 21.1548 37.8333 20.8831 38.2054C20.5878 38.6099 20.1342 38.8298 19.5987 38.8298C19.0464 38.8298 18.5971 38.5877 18.3102 38.1869C18.0451 37.8165 17.9555 37.3656 17.9555 36.9621C17.9555 36.7305 17.9263 36.6863 17.9014 36.6486L17.9002 36.6467C17.8322 36.5435 17.701 36.4169 17.3291 36.0788L17.2695 36.0246C16.7044 35.5111 16.2458 35.0944 15.3178 34.11C13.3603 32.0335 12.1793 29.225 13.3082 26.8312C13.8203 25.7453 14.5573 24.8743 15.6198 24.2859ZM28.2149 0.370889C29.2566 0.0290912 30.148 -0.0604941 30.9457 0.0370606C31.7436 0.134652 32.4036 0.41425 32.9851 0.748177C34.193 1.44183 36.3062 3.03306 37.5801 6.47342C38.9841 10.2651 38.9909 13.683 37.2833 17.3045L37.2585 17.2928C37.105 17.6189 36.7191 17.7663 36.386 17.6221C36.0463 17.475 35.8902 17.0804 36.0372 16.7408C36.0401 16.7342 36.0431 16.7276 36.0461 16.7212L36.017 16.7075C37.5452 13.4663 37.5569 10.4425 36.2672 6.95957C35.133 3.89653 33.2841 2.53433 32.2879 1.96223C31.815 1.69066 31.335 1.49512 30.7757 1.42671C30.2161 1.35826 29.533 1.41182 28.6514 1.70111C26.7118 2.33754 26.0013 4.30082 26.0774 5.8896C26.1061 6.49 26.3071 7.67314 27.4676 8.65208C27.7727 8.90941 28.0211 9.17193 28.2217 9.43087C28.7229 8.98191 28.9102 8.42638 28.9381 8.21618L28.97 8.22042C28.9713 8.20061 28.9735 8.18069 28.9766 8.1607C29.0332 7.79492 29.3756 7.54428 29.7414 7.60089C30.1072 7.65749 30.3578 7.99991 30.3012 8.36569C30.2996 8.3759 30.2978 8.38602 30.2958 8.39605L30.326 8.40004C30.2552 8.93386 29.871 9.97008 28.878 10.6999C28.8831 10.7185 28.8879 10.737 28.8926 10.7553C30.0681 11.1151 30.7727 11.9629 31.0162 12.4422L30.9884 12.4564C31.1665 12.7573 31.083 13.149 30.7904 13.3497C30.4852 13.5592 30.068 13.4815 29.8586 13.1763C29.8336 13.1398 29.8126 13.1016 29.7956 13.0624L29.7681 13.0764C29.6782 12.8994 29.3558 12.4833 28.8047 12.22C28.6947 12.5479 28.5497 12.8221 28.4163 13.0743L28.416 13.0749L28.4062 13.0935C28.1942 13.4941 27.9923 13.8759 27.8518 14.4658C27.6782 15.1944 27.6405 15.9631 27.8827 16.7112C28.1217 17.4492 28.6546 18.2346 29.7411 18.9705C31.0292 19.843 33.2515 19.8977 34.65 18.535L34.6757 18.5614C34.9406 18.3689 35.3136 18.395 35.5489 18.6364C35.7842 18.8778 35.8007 19.2514 35.6014 19.5113L35.627 19.5376C33.691 21.4241 30.7196 21.3242 28.956 20.1296C27.6477 19.2435 26.8986 18.2166 26.5508 17.1424C26.2063 16.0783 26.2771 15.0348 26.4899 14.1415C26.6718 13.3774 26.9432 12.8647 27.1599 12.4553L27.1784 12.4203C27.3946 12.0117 27.5263 11.7443 27.5694 11.3593L27.5694 11.3592L27.5695 11.3585L27.5697 11.3559L27.5701 11.3464C27.5703 11.338 27.5703 11.3265 27.5696 11.3119C27.5683 11.2824 27.5644 11.243 27.5558 11.1946C27.5387 11.0978 27.5037 10.9703 27.4378 10.8205C27.3071 10.5235 27.0521 10.1332 26.5649 9.7222C24.9987 8.40102 24.7183 6.77715 24.679 5.95658C24.5867 4.03021 25.4389 1.28178 28.2149 0.370889ZM26.1435 11.7805L26.1529 11.7772C26.5016 11.6531 26.6837 11.2698 26.5596 10.9211C26.4384 10.5805 26.0698 10.3989 25.7278 10.5063L25.7191 10.4797C24.6026 10.844 23.0707 11.9291 22.4054 13.7808C21.9297 15.105 22.079 16.2441 22.5313 17.3443C22.8553 18.1326 23.3571 18.9429 23.8789 19.7854C24.0451 20.0538 24.2133 20.3255 24.3785 20.6008C24.4826 20.7744 24.5901 20.9517 24.6992 21.1316L24.6995 21.1321L24.7003 21.1334L24.7006 21.1339C25.2853 22.0981 25.9156 23.1376 26.3137 24.0725C26.5507 24.6293 26.6734 25.079 26.6816 25.4071C26.6891 25.7064 26.6065 25.814 26.5053 25.8815L26.5245 25.9102C26.5012 25.9231 26.4784 25.9375 26.4563 25.9535C26.156 26.1699 26.0879 26.5887 26.3043 26.889C26.5207 27.1893 26.9395 27.2574 27.2398 27.041C27.2486 27.0347 27.2571 27.0282 27.2654 27.0216L27.2819 27.0464C27.8988 26.6351 28.0968 25.9938 28.0812 25.3719C28.0663 24.7789 27.862 24.1352 27.6018 23.5241C27.1604 22.4875 26.466 21.3436 25.8838 20.3845C25.7777 20.2098 25.6754 20.0412 25.579 19.8806C25.3828 19.5536 25.1952 19.2503 25.0183 18.9645L25.0183 18.9645L25.0183 18.9644C24.517 18.1542 24.1025 17.4843 23.8262 16.8121C23.4774 15.9636 23.3875 15.1879 23.723 14.2542C24.2186 12.8746 25.3771 12.0639 26.1533 11.8107L26.1435 11.7805ZM16.1952 13.7808C15.5299 11.9291 13.998 10.844 12.8815 10.4797L12.8713 10.5108C12.5381 10.423 12.1875 10.6038 12.0699 10.9343C11.9482 11.2762 12.1208 11.6514 12.4563 11.7829L12.4472 11.8107C13.2235 12.0639 14.382 12.8746 14.8776 14.2541C15.2131 15.1879 15.1232 15.9636 14.7744 16.8121C14.4981 17.4843 14.0836 18.1542 13.5823 18.9645C13.4054 19.2503 13.2178 19.5536 13.0216 19.8805C12.9252 20.0412 12.8229 20.2097 12.7169 20.3844L12.7168 20.3845C12.1346 21.3436 11.4402 22.4875 10.9988 23.5241C10.7386 24.1352 10.5343 24.7789 10.5194 25.3719C10.5038 25.9938 10.7018 26.6351 11.3187 27.0463L11.3392 27.0155C11.6346 27.1916 12.0208 27.1155 12.2256 26.8312C12.44 26.5337 12.3751 26.1197 12.0818 25.9017L12.0953 25.8815C11.9941 25.814 11.9114 25.7064 11.919 25.4071C11.9272 25.079 12.0499 24.6293 12.2869 24.0725C12.685 23.1376 13.3153 22.0982 13.9 21.1339L13.9 21.1339L13.9002 21.1335L13.9004 21.1332C14.0098 20.9527 14.1177 20.7749 14.2221 20.6008C14.3873 20.3255 14.5555 20.0538 14.7217 19.7854L14.7218 19.7854C15.2435 18.9429 15.7453 18.1326 16.0693 17.3443C16.5216 16.2441 16.6709 15.105 16.1952 13.7808Z" fill="#042D48"/>
</svg>
