<svg width="17" height="21" viewBox="0 0 17 21" fill="none" xmlns="http://www.w3.org/2000/svg">
<path d="M15.4006 11.0644L15.3978 11.0718L15.3952 11.0793C15.196 11.6629 14.8529 12.2389 14.3755 12.7841L14.3754 12.784L14.3693 12.7913L8.74165 19.4683C8.7415 19.4685 8.74134 19.4686 8.74119 19.4688C8.69213 19.5264 8.64812 19.54 8.60916 19.54C8.57019 19.54 8.52618 19.5264 8.47713 19.4688C8.47697 19.4686 8.47682 19.4685 8.47666 19.4683L2.84999 12.7924C2.84985 12.7922 2.84971 12.7921 2.84956 12.7919C2.39001 12.2432 2.04137 11.66 1.81798 11.0651L1.81773 11.0644C0.982926 8.85092 1.29476 6.31477 2.65561 4.32657C4.03693 2.3185 6.206 1.18195 8.60916 1.18195C11.0124 1.18195 13.1815 2.31854 14.5628 4.32667C15.9236 6.31486 16.2354 8.85096 15.4006 11.0644Z" stroke="#35AD9C"/>
</svg>
